<mxfile host="app.diagrams.net" modified="2022-09-09T00:20:22.155Z" agent="5.0 (Windows NT 10.0; Win64; x64) AppleWebKit/537.36 (KHTML, like Gecko) Chrome/105.0.0.0 Safari/537.36" etag="ctRzGKakxA0lQ6YwaHU4" version="20.3.0" type="github">
  <diagram id="7d0x-xp93fIhHenSywUt" name="Page-1">
    <mxGraphModel dx="1422" dy="737" grid="1" gridSize="10" guides="1" tooltips="1" connect="1" arrows="1" fold="1" page="1" pageScale="1" pageWidth="1100" pageHeight="850" math="0" shadow="0">
      <root>
        <mxCell id="0" />
        <mxCell id="1" parent="0" />
        <mxCell id="p-3F2_YkWac7Y5jsDY-2-1" value="Maintain Books" style="swimlane;" parent="1" vertex="1">
          <mxGeometry x="175" y="30" width="750" height="750" as="geometry" />
        </mxCell>
        <mxCell id="p-3F2_YkWac7Y5jsDY-2-5" value="Loan book" style="ellipse;whiteSpace=wrap;html=1;" parent="p-3F2_YkWac7Y5jsDY-2-1" vertex="1">
          <mxGeometry x="315" y="30" width="120" height="80" as="geometry" />
        </mxCell>
        <mxCell id="p-3F2_YkWac7Y5jsDY-2-6" value="Return book" style="ellipse;whiteSpace=wrap;html=1;" parent="p-3F2_YkWac7Y5jsDY-2-1" vertex="1">
          <mxGeometry x="315" y="130" width="120" height="80" as="geometry" />
        </mxCell>
        <mxCell id="p-3F2_YkWac7Y5jsDY-2-7" value="Extend_loan" style="ellipse;whiteSpace=wrap;html=1;" parent="p-3F2_YkWac7Y5jsDY-2-1" vertex="1">
          <mxGeometry x="315" y="230" width="120" height="80" as="geometry" />
        </mxCell>
        <mxCell id="p-3F2_YkWac7Y5jsDY-2-8" value="Donate_book" style="ellipse;whiteSpace=wrap;html=1;" parent="p-3F2_YkWac7Y5jsDY-2-1" vertex="1">
          <mxGeometry x="315" y="330" width="120" height="80" as="geometry" />
        </mxCell>
        <mxCell id="p-3F2_YkWac7Y5jsDY-2-9" value="Modify_loan" style="ellipse;whiteSpace=wrap;html=1;" parent="p-3F2_YkWac7Y5jsDY-2-1" vertex="1">
          <mxGeometry x="315" y="440" width="120" height="80" as="geometry" />
        </mxCell>
        <mxCell id="p-3F2_YkWac7Y5jsDY-2-10" value="Add book" style="ellipse;whiteSpace=wrap;html=1;" parent="p-3F2_YkWac7Y5jsDY-2-1" vertex="1">
          <mxGeometry x="315" y="530" width="120" height="80" as="geometry" />
        </mxCell>
        <mxCell id="p-3F2_YkWac7Y5jsDY-2-11" value="Remove book" style="ellipse;whiteSpace=wrap;html=1;" parent="p-3F2_YkWac7Y5jsDY-2-1" vertex="1">
          <mxGeometry x="315" y="640" width="120" height="80" as="geometry" />
        </mxCell>
        <mxCell id="p-3F2_YkWac7Y5jsDY-2-14" value="" style="endArrow=classic;html=1;rounded=0;" parent="p-3F2_YkWac7Y5jsDY-2-1" edge="1">
          <mxGeometry width="50" height="50" relative="1" as="geometry">
            <mxPoint x="-65" y="150" as="sourcePoint" />
            <mxPoint x="315" y="270" as="targetPoint" />
          </mxGeometry>
        </mxCell>
        <mxCell id="n3PokeSjfswJ7zNs44eI-1" value="Search_book" style="ellipse;whiteSpace=wrap;html=1;" vertex="1" parent="p-3F2_YkWac7Y5jsDY-2-1">
          <mxGeometry x="445" y="370" width="120" height="80" as="geometry" />
        </mxCell>
        <mxCell id="p-3F2_YkWac7Y5jsDY-2-2" value="User" style="shape=umlActor;verticalLabelPosition=bottom;verticalAlign=top;html=1;outlineConnect=0;" parent="1" vertex="1">
          <mxGeometry x="70" y="140" width="30" height="60" as="geometry" />
        </mxCell>
        <mxCell id="p-3F2_YkWac7Y5jsDY-2-3" value="Staff" style="shape=umlActor;verticalLabelPosition=bottom;verticalAlign=top;html=1;outlineConnect=0;" parent="1" vertex="1">
          <mxGeometry x="1000" y="140" width="30" height="60" as="geometry" />
        </mxCell>
        <mxCell id="p-3F2_YkWac7Y5jsDY-2-4" value="Manager" style="shape=umlActor;verticalLabelPosition=bottom;verticalAlign=top;html=1;outlineConnect=0;" parent="1" vertex="1">
          <mxGeometry x="1000" y="425" width="30" height="60" as="geometry" />
        </mxCell>
        <mxCell id="p-3F2_YkWac7Y5jsDY-2-12" value="" style="endArrow=classic;html=1;rounded=0;entryX=0;entryY=0.5;entryDx=0;entryDy=0;" parent="1" target="p-3F2_YkWac7Y5jsDY-2-8" edge="1">
          <mxGeometry width="50" height="50" relative="1" as="geometry">
            <mxPoint x="110" y="180" as="sourcePoint" />
            <mxPoint x="570" y="380" as="targetPoint" />
          </mxGeometry>
        </mxCell>
        <mxCell id="p-3F2_YkWac7Y5jsDY-2-13" value="" style="endArrow=classic;html=1;rounded=0;entryX=1;entryY=0.5;entryDx=0;entryDy=0;" parent="1" target="p-3F2_YkWac7Y5jsDY-2-7" edge="1">
          <mxGeometry width="50" height="50" relative="1" as="geometry">
            <mxPoint x="980" y="190" as="sourcePoint" />
            <mxPoint x="570" y="380" as="targetPoint" />
          </mxGeometry>
        </mxCell>
        <mxCell id="p-3F2_YkWac7Y5jsDY-2-15" value="" style="endArrow=classic;html=1;rounded=0;entryX=0;entryY=0.5;entryDx=0;entryDy=0;" parent="1" target="p-3F2_YkWac7Y5jsDY-2-6" edge="1">
          <mxGeometry width="50" height="50" relative="1" as="geometry">
            <mxPoint x="110" y="180" as="sourcePoint" />
            <mxPoint x="570" y="380" as="targetPoint" />
          </mxGeometry>
        </mxCell>
        <mxCell id="p-3F2_YkWac7Y5jsDY-2-16" value="" style="endArrow=classic;html=1;rounded=0;entryX=0;entryY=0.5;entryDx=0;entryDy=0;" parent="1" target="p-3F2_YkWac7Y5jsDY-2-5" edge="1">
          <mxGeometry width="50" height="50" relative="1" as="geometry">
            <mxPoint x="110" y="170" as="sourcePoint" />
            <mxPoint x="570" y="380" as="targetPoint" />
          </mxGeometry>
        </mxCell>
        <mxCell id="p-3F2_YkWac7Y5jsDY-2-17" value="" style="endArrow=classic;html=1;rounded=0;entryX=1;entryY=0.5;entryDx=0;entryDy=0;" parent="1" target="p-3F2_YkWac7Y5jsDY-2-9" edge="1">
          <mxGeometry width="50" height="50" relative="1" as="geometry">
            <mxPoint x="990" y="460" as="sourcePoint" />
            <mxPoint x="570" y="380" as="targetPoint" />
          </mxGeometry>
        </mxCell>
        <mxCell id="p-3F2_YkWac7Y5jsDY-2-18" value="" style="endArrow=classic;html=1;rounded=0;entryX=1;entryY=0.5;entryDx=0;entryDy=0;" parent="1" target="p-3F2_YkWac7Y5jsDY-2-10" edge="1">
          <mxGeometry width="50" height="50" relative="1" as="geometry">
            <mxPoint x="990" y="460" as="sourcePoint" />
            <mxPoint x="570" y="380" as="targetPoint" />
          </mxGeometry>
        </mxCell>
        <mxCell id="p-3F2_YkWac7Y5jsDY-2-19" value="" style="endArrow=classic;html=1;rounded=0;entryX=1;entryY=0.5;entryDx=0;entryDy=0;" parent="1" target="p-3F2_YkWac7Y5jsDY-2-11" edge="1">
          <mxGeometry width="50" height="50" relative="1" as="geometry">
            <mxPoint x="990" y="460" as="sourcePoint" />
            <mxPoint x="570" y="380" as="targetPoint" />
          </mxGeometry>
        </mxCell>
        <mxCell id="p-3F2_YkWac7Y5jsDY-2-20" value="" style="endArrow=classic;html=1;rounded=0;entryX=1;entryY=0.5;entryDx=0;entryDy=0;" parent="1" target="p-3F2_YkWac7Y5jsDY-2-6" edge="1">
          <mxGeometry width="50" height="50" relative="1" as="geometry">
            <mxPoint x="980" y="190" as="sourcePoint" />
            <mxPoint x="570" y="380" as="targetPoint" />
          </mxGeometry>
        </mxCell>
        <mxCell id="n3PokeSjfswJ7zNs44eI-2" value="" style="endArrow=classic;html=1;rounded=0;entryX=1;entryY=0.5;entryDx=0;entryDy=0;" edge="1" parent="1" target="n3PokeSjfswJ7zNs44eI-1">
          <mxGeometry width="50" height="50" relative="1" as="geometry">
            <mxPoint x="990" y="460" as="sourcePoint" />
            <mxPoint x="570" y="380" as="targetPoint" />
          </mxGeometry>
        </mxCell>
        <mxCell id="n3PokeSjfswJ7zNs44eI-3" value="" style="endArrow=classic;html=1;rounded=0;entryX=0.958;entryY=0.238;entryDx=0;entryDy=0;entryPerimeter=0;" edge="1" parent="1" target="n3PokeSjfswJ7zNs44eI-1">
          <mxGeometry width="50" height="50" relative="1" as="geometry">
            <mxPoint x="980" y="190" as="sourcePoint" />
            <mxPoint x="570" y="350" as="targetPoint" />
          </mxGeometry>
        </mxCell>
      </root>
    </mxGraphModel>
  </diagram>
</mxfile>
